# xmcd
#
# Track frame offsets:
#	150
#	26150
#	41477
#	55525
#	69997
#	88547
#	104875
#	120652
#	146525
#	181550
#	203922
#	225850
#	239275
#	274525
#	296500
#	315625
#	329125
#
# Disc length: 4609
#
# Revision: 2
# Processed by: cddbd v1.5.1PL0 Copyright (c) Steve Scherf et al.
# Submitted via: VOLTOCDX V1.0.22 
# Normalized: r1:DSETVAR1,TDELIM( - )
#
DISCID=ec11ff11
DTITLE=Various Artist - Build Your Baby's Brain
DYEAR=2002
DGENRE=country
TTITLE0=Mozart - Eine Kleine Nachtmusik  Allegro
TTITLE1=Beethoven - Fur Elise
TTITLE2=Handel - Arrival of the Queen of Sheba
TTITLE3=Mozart - Rondo  Alla Turca
TTITLE4=Schubert - Quintet for Piano and Strings
TTITLE5=Vivaldi - Spring from The Four Seasons
TTITLE6=Bach - Jesu Joy of Man's Desiring
TTITLE7=Pachelbel - Canon in D
TTITLE8=Schubert - Quintet for Piano and Strings
TTITLE9=Bach - Air on the G String
TTITLE10=Bach - Sheep May Safely Graze
TTITLE11=Handel - Water Music  Air
TTITLE12=Mozart - Piano Concerto No 21  Andante
TTITLE13=Mozart - Eine Kleine Nachtmusic  Romance
TTITLE14=Mozart - Dove Sono from Le nozze di Figaro
TTITLE15=Mozart - La ci darem la mano   from Don Giovanni
TTITLE16=Bach - Bist du bei mir
EXTD=
EXTT0=
EXTT1=
EXTT2=
EXTT3=
EXTT4=
EXTT5=
EXTT6=
EXTT7=
EXTT8=
EXTT9=
EXTT10=
EXTT11=
EXTT12=
EXTT13=
EXTT14=
EXTT15=
EXTT16=
PLAYORDER=
